<?xml version="1.0" encoding="utf-8"?>
<!-- Generator: Adobe Illustrator 26.1.0, SVG Export Plug-In . SVG Version: 6.00 Build 0)  -->
<svg version="1.1" id="Layer_1" xmlns="http://www.w3.org/2000/svg" xmlns:xlink="http://www.w3.org/1999/xlink" x="0px" y="0px"
	 viewBox="0 0 792 386" style="enable-background:new 0 0 792 386;" xml:space="preserve">
<style type="text/css">
	.st0{fill:#284361;}
	.st1{fill:#EAB41F;}
	.st2{fill:#5A5B5D;}
</style>
<g>
	<g>
		<g>
			<polygon class="st0" points="34.84,296.97 121.88,296.97 121.88,269.1 71.63,269.1 71.63,235.05 116.37,235.05 116.37,206.36 
				71.63,206.36 71.63,174.26 121.88,174.26 121.88,147.67 34.84,147.67 			"/>
			<rect x="136.95" y="148.49" class="st0" width="33.57" height="148.97"/>
			<path class="st0" d="M232.44,188.36h-0.66c-14.74,0-26.74,5.19-35.17,14.75c-8.75,9.57-13.3,23.18-13.3,40.53
				c0,17.35,4.54,30.47,13.3,39.39c9.41,9.57,21.89,14.1,35.17,14.59c14.59,0.49,29.99-3.88,42.96-12.32l-8.42-20.74
				c-10.86,6.81-24.31,10.21-34.53,7.78c-9.08-2.11-15.55-8.92-15.55-21.73h15.55h45.23c1.13-28.69-5.51-43.44-13.29-50.9
				C255.94,191.94,245.24,188.36,232.44,188.36z M246.38,228.4h-14.59h-14.42c0-5.51,1.45-9.56,3.56-12.16c2.59-2.92,6-4.7,10.7-4.7
				h0.16c4.71,0,7.62,1.46,10.22,3.73c2.59,1.79,4.37,6.16,4.37,12.16V228.4z"/>
			<polygon class="st0" points="325.98,257.26 309.76,190.95 278.81,190.95 303.61,294.86 346.72,294.86 373.63,190.95 
				342.67,190.95 			"/>
			<path class="st0" d="M513.2,162.43h-32.1v28.52h-9.24v22.37h9.24v47.17c0,35.02,21.73,35.82,44.57,36.15V268.6h-5.51
				c-2.59,0-4.54-0.64-5.51-1.77c-0.81-1.14-1.46-3.26-1.46-6.65v-46.85h12.47v-22.37H513.2V162.43z"/>
			<path class="st0" d="M589.07,190.15h-1.62c-31.61,0.65-51.87,21.56-51.87,53.82c0,33.23,22.53,52.68,51.71,52.68h0.16
				c26.42,0,52.2-17.02,52.2-54.14C639.64,211.54,619.21,190.15,589.07,190.15z M587.6,273.15h-0.15
				c-13.12-0.18-20.11-12.97-20.11-29.51c0-15.07,5.52-29.83,20.11-29.83h0.15c13.95,0,19.94,14.59,19.94,29.35
				C607.54,260.99,599.77,273.15,587.6,273.15z"/>
			<path class="st0" d="M461.17,234.41c0-24.33-10.38-44.59-42.63-44.59h-1.14c-17.02,0.16-29.98,5.18-36.47,9.23l5.52,20.26
				c6.31-3.72,18.15-7.46,26.9-7.46c1.46,0,2.92,0.16,4.06,0.33c11.19,1.3,13.46,7.94,13.46,12.96v1.14c-4.7,0-9.24,0.16-13.46,0.65
				c-26.42,3.24-42.3,15.89-42.3,39.08c0,16.19,10.7,30.3,30.16,31.43c4.05,0.33,8.26,0,12.15-0.98c6-1.62,11.67-4.7,15.73-9.72
				h0.32l1.94,8.43h27.24c-1.14-5.5-1.46-15.06-1.46-24.63V234.41z M431.66,257.26c0,0.65,0,2.59-0.32,4.37
				c-1.78,5.52-7.95,9.89-13.94,11.34c-1.3,0.34-2.59,0.5-4.06,0.5c-6.65,0-10.21-2.92-10.21-9.57c0.49-8.42,6-12.96,14.26-14.74
				c4.06-0.98,8.93-1.14,14.27-0.82V257.26z"/>
		</g>
	</g>
	<polygon class="st1" points="665.74,88.35 665.74,114.61 711.78,114.61 681.14,145.24 607.06,145.24 607.06,173.61 669.8,173.61 
		669.8,238.13 698.49,238.13 698.49,165.02 730.9,132.6 730.9,179.78 757.16,179.78 757.16,88.35 	"/>
	<g>
		<path class="st2" d="M220.03,121.33v-0.12c0-12.76,9.93-23.2,23.52-23.2c8.07,0,12.95,2.18,17.62,6.16l-6.21,7.5
			c-3.46-2.88-6.54-4.56-11.73-4.56c-7.18,0-12.88,6.34-12.88,13.97v0.13c0,8.2,5.64,14.23,13.59,14.23c3.59,0,6.79-0.9,9.29-2.7
			v-6.41h-9.93v-8.52h19.49v19.49c-4.62,3.91-10.96,7.11-19.16,7.11C229.63,144.4,220.03,134.59,220.03,121.33z"/>
		<path class="st2" d="M273.59,98.77h20.51c5.7,0,10.13,1.6,13.07,4.55c2.5,2.5,3.84,6.02,3.84,10.26v0.12
			c0,7.24-3.91,11.8-9.61,13.91l10.96,16.02h-11.54l-9.61-14.36h-7.75v14.36h-9.87V98.77z M293.45,120.56
			c4.81,0,7.56-2.56,7.56-6.34v-0.13c0-4.23-2.95-6.41-7.75-6.41h-9.8v12.88H293.45z"/>
		<path class="st2" d="M320.55,124.4V98.77h9.87v25.38c0,7.3,3.65,11.09,9.68,11.09c6.02,0,9.68-3.65,9.68-10.77v-25.7h9.87v25.31
			c0,13.59-7.62,20.25-19.67,20.25C327.92,144.33,320.55,137.61,320.55,124.4z"/>
		<path class="st2" d="M371.04,98.77h18.33c10.7,0,17.18,6.34,17.18,15.51v0.12c0,10.38-8.07,15.77-18.14,15.77h-7.5v13.46h-9.87
			V98.77z M388.72,121.4c4.94,0,7.82-2.95,7.82-6.8v-0.12c0-4.42-3.08-6.8-8.01-6.8h-7.62v13.72H388.72z"/>
		<path class="st2" d="M413.19,121.33v-0.12c0-12.76,10.06-23.2,23.9-23.2s23.78,10.32,23.78,23.07v0.13
			c0,12.75-10.06,23.2-23.91,23.2S413.19,134.08,413.19,121.33z M450.55,121.33v-0.12c0-7.69-5.64-14.1-13.59-14.1
			c-7.95,0-13.46,6.28-13.46,13.97v0.13c0,7.69,5.64,14.1,13.59,14.1C445.04,135.3,450.55,129.02,450.55,121.33z"/>
	</g>
</g>
</svg>
